<svg width="36" height="36" viewBox="0 0 36 36" fill="none" xmlns="http://www.w3.org/2000/svg">
<g clip-path="url(#clip0_72_10)">
<path d="M18 0C24.2134 0 29.25 5.03663 29.25 11.25C29.25 17.4634 24.2134 22.5 18 22.5C11.7866 22.5 6.75 17.4634 6.75 11.25C6.75 5.03663 11.7866 0 18 0ZM18 2.25C15.6131 2.25 13.3239 3.19821 11.636 4.88604C9.94821 6.57387 9 8.86305 9 11.25C9 13.6369 9.94821 15.9261 11.636 17.614C13.3239 19.3018 15.6131 20.25 18 20.25C20.3869 20.25 22.6761 19.3018 24.364 17.614C26.0518 15.9261 27 13.6369 27 11.25C27 8.86305 26.0518 6.57387 24.364 4.88604C22.6761 3.19821 20.3869 2.25 18 2.25Z" fill="#22A9E1"/>
<path d="M9.44998 21.699C10.0042 22.152 10.5915 22.5596 11.2117 22.9219L8.16748 26.6423C8.80486 27.5391 9.09159 28.6384 8.97345 29.7323C8.8553 30.8262 8.34049 31.8389 7.52632 32.579C6.71215 33.3191 5.65506 33.7352 4.55487 33.7488C3.45469 33.7623 2.38767 33.3723 1.55552 32.6525C0.723376 31.9327 0.183776 30.933 0.0387337 29.8423C-0.106309 28.7516 0.153257 27.6456 0.768361 26.7334C1.38346 25.8211 2.31148 25.1658 3.37696 24.8913C4.44245 24.6169 5.57157 24.7423 6.55086 25.2439L9.44998 21.699ZM26.55 21.699L29.4491 25.2428C30.4284 24.7412 31.5575 24.6158 32.623 24.8902C33.6885 25.1647 34.6165 25.82 35.2316 26.7322C35.8467 27.6445 36.1063 28.7505 35.9612 29.8412C35.8162 30.9318 35.2766 31.9316 34.4444 32.6514C33.6123 33.3712 32.5453 33.7612 31.4451 33.7476C30.3449 33.7341 29.2878 33.3179 28.4736 32.5779C27.6595 31.8378 27.1447 30.8251 27.0265 29.7312C26.9084 28.6373 27.1951 27.538 27.8325 26.6411L24.7882 22.9219C25.4066 22.5616 25.9964 22.1526 26.55 21.699ZM4.49998 27C3.90324 27 3.33095 27.2371 2.90899 27.659C2.48703 28.081 2.24998 28.6533 2.24998 29.25C2.24998 29.8467 2.48703 30.419 2.90899 30.841C3.33095 31.2629 3.90324 31.5 4.49998 31.5C5.09672 31.5 5.66901 31.2629 6.09097 30.841C6.51293 30.419 6.74998 29.8467 6.74998 29.25C6.74998 28.6533 6.51293 28.081 6.09097 27.659C5.66901 27.2371 5.09672 27 4.49998 27ZM31.5 27C30.9032 27 30.3309 27.2371 29.909 27.659C29.487 28.081 29.25 28.6533 29.25 29.25C29.25 29.8467 29.487 30.419 29.909 30.841C30.3309 31.2629 30.9032 31.5 31.5 31.5C32.0967 31.5 32.669 31.2629 33.091 30.841C33.5129 30.419 33.75 29.8467 33.75 29.25C33.75 28.6533 33.5129 28.081 33.091 27.659C32.669 27.2371 32.0967 27 31.5 27ZM19.125 6.75V10.125H22.5V12.375H19.125V15.75H16.875V12.375H13.5V10.125H16.875V6.75H19.125Z" fill="#22A9E1"/>
</g>
<defs>
<clipPath id="clip0_72_10">
<rect width="36" height="36" fill="white"/>
</clipPath>
</defs>
</svg>
