<svg width="36" height="36" viewBox="0 0 36 36" fill="none" xmlns="http://www.w3.org/2000/svg">
<g clip-path="url(#clip0_72_43)">
<path d="M34.2 22.6311V20.3168C34.2004 18.7772 33.6891 17.2812 32.7464 16.0639C31.8038 14.8466 30.4833 13.9772 28.9925 13.5924C27.5018 13.2075 25.9254 13.3291 24.5114 13.938C23.0973 14.5469 21.9257 15.6085 21.1808 16.956M1.79999 22.6311V20.3168C1.79955 18.7772 2.31087 17.2812 3.25353 16.0639C4.19619 14.8466 5.51673 13.9772 7.00746 13.5924C8.49819 13.2075 10.0745 13.3291 11.4886 13.938C12.9027 14.5469 14.0743 15.6085 14.8191 16.956M22.6286 6.43112C22.6286 7.6587 23.1162 8.83599 23.9842 9.70402C24.8523 10.572 26.0296 11.0597 27.2571 11.0597C28.4847 11.0597 29.662 10.572 30.53 9.70402C31.3981 8.83599 31.8857 7.6587 31.8857 6.43112C31.8857 5.20355 31.3981 4.02625 30.53 3.15823C29.662 2.2902 28.4847 1.80255 27.2571 1.80255C26.0296 1.80255 24.8523 2.2902 23.9842 3.15823C23.1162 4.02625 22.6286 5.20355 22.6286 6.43112ZM4.11427 6.43112C4.11427 7.6587 4.60193 8.83599 5.46995 9.70402C6.33798 10.572 7.51527 11.0597 8.74285 11.0597C9.97042 11.0597 11.1477 10.572 12.0157 9.70402C12.8838 8.83599 13.3714 7.6587 13.3714 6.43112C13.3714 5.20355 12.8838 4.02625 12.0157 3.15823C11.1477 2.2902 9.97042 1.80255 8.74285 1.80255C7.51527 1.80255 6.33798 2.2902 5.46995 3.15823C4.60193 4.02625 4.11427 5.20355 4.11427 6.43112Z" stroke="#22A9E1" stroke-width="2" stroke-linecap="round" stroke-linejoin="round"/>
<path d="M24.9454 34.1974C24.9454 32.356 24.2139 30.5901 22.9119 29.2881C21.6099 27.986 19.8439 27.2545 18.0025 27.2545C16.1612 27.2545 14.3952 27.986 13.0932 29.2881C11.7912 30.5901 11.0597 32.356 11.0597 34.1974M13.374 20.3117C13.374 21.5393 13.8616 22.7165 14.7297 23.5846C15.5977 24.4526 16.775 24.9403 18.0025 24.9403C19.2301 24.9403 20.4074 24.4526 21.2754 23.5846C22.1435 22.7165 22.6311 21.5393 22.6311 20.3117C22.6311 19.0841 22.1435 17.9068 21.2754 17.0388C20.4074 16.1708 19.2301 15.6831 18.0025 15.6831C16.775 15.6831 15.5977 16.1708 14.7297 17.0388C13.8616 17.9068 13.374 19.0841 13.374 20.3117Z" stroke="#22A9E1" stroke-width="2" stroke-linecap="round" stroke-linejoin="round"/>
</g>
<defs>
<clipPath id="clip0_72_43">
<rect width="36" height="36" fill="white"/>
</clipPath>
</defs>
</svg>
