<svg width="36" height="36" viewBox="0 0 36 36" fill="none" xmlns="http://www.w3.org/2000/svg">
<path d="M7.5 33V3H10.5V6H31.5L28.5 13.5L31.5 21H10.5V33H7.5ZM18.75 16.5C19.575 16.5 20.2815 16.2065 20.8695 15.6195C21.4575 15.0325 21.751 14.326 21.75 13.5C21.749 12.674 21.4555 11.968 20.8695 11.382C20.2835 10.796 19.577 10.502 18.75 10.5C17.923 10.498 17.217 10.792 16.632 11.382C16.047 11.972 15.753 12.678 15.75 13.5C15.747 14.322 16.041 15.0285 16.632 15.6195C17.223 16.2105 17.929 16.504 18.75 16.5ZM10.5 18H27.075L25.275 13.5L27.075 9H10.5V18Z" fill="#22A9E1"/>
</svg>
