<svg width="36" height="36" viewBox="0 0 36 36" fill="none" xmlns="http://www.w3.org/2000/svg">
<path d="M18 10.5C17.2044 10.5 16.4413 10.1839 15.8787 9.62132C15.3161 9.05871 15 8.29565 15 7.5C15 6.70435 15.3161 5.94129 15.8787 5.37868C16.4413 4.81607 17.2044 4.5 18 4.5C18.7956 4.5 19.5587 4.81607 20.1213 5.37868C20.6839 5.94129 21 6.70435 21 7.5C21 8.29565 20.6839 9.05871 20.1213 9.62132C19.5587 10.1839 18.7956 10.5 18 10.5ZM18 10.5V16.5M18 16.5C19.1935 16.5 20.3381 16.9741 21.182 17.818C22.0259 18.6619 22.5 19.8065 22.5 21C22.5 22.1935 22.0259 23.3381 21.182 24.182C20.3381 25.0259 19.1935 25.5 18 25.5C16.8065 25.5 15.6619 25.0259 14.818 24.182C13.9741 23.3381 13.5 22.1935 13.5 21C13.5 19.8065 13.9741 18.6619 14.818 17.818C15.6619 16.9741 16.8065 16.5 18 16.5ZM10.05 26.7L14.25 23.7M25.95 26.7L21.75 23.7M4.5 28.5C4.5 29.2956 4.81607 30.0587 5.37868 30.6213C5.94129 31.1839 6.70435 31.5 7.5 31.5C8.29565 31.5 9.05871 31.1839 9.62132 30.6213C10.1839 30.0587 10.5 29.2956 10.5 28.5C10.5 27.7044 10.1839 26.9413 9.62132 26.3787C9.05871 25.8161 8.29565 25.5 7.5 25.5C6.70435 25.5 5.94129 25.8161 5.37868 26.3787C4.81607 26.9413 4.5 27.7044 4.5 28.5ZM25.5 28.5C25.5 29.2956 25.8161 30.0587 26.3787 30.6213C26.9413 31.1839 27.7044 31.5 28.5 31.5C29.2956 31.5 30.0587 31.1839 30.6213 30.6213C31.1839 30.0587 31.5 29.2956 31.5 28.5C31.5 27.7044 31.1839 26.9413 30.6213 26.3787C30.0587 25.8161 29.2956 25.5 28.5 25.5C27.7044 25.5 26.9413 25.8161 26.3787 26.3787C25.8161 26.9413 25.5 27.7044 25.5 28.5Z" stroke="#22A9E1" stroke-width="2" stroke-linecap="round" stroke-linejoin="round"/>
</svg>
