<svg width="36" height="36" viewBox="0 0 36 36" fill="none" xmlns="http://www.w3.org/2000/svg">
<path d="M26.25 5.25C25.0565 5.25 23.9119 5.72411 23.068 6.56802C22.2241 7.41193 21.75 8.55653 21.75 9.75C21.75 10.9435 22.2241 12.0881 23.068 12.932C23.9119 13.7759 25.0565 14.25 26.25 14.25C27.4435 14.25 28.5881 13.7759 29.432 12.932C30.2759 12.0881 30.75 10.9435 30.75 9.75C30.75 8.55653 30.2759 7.41193 29.432 6.56802C28.5881 5.72411 27.4435 5.25 26.25 5.25ZM18.75 9.75C18.75 7.76088 19.5402 5.85322 20.9467 4.4467C22.3532 3.04018 24.2609 2.25 26.25 2.25C28.2391 2.25 30.1468 3.04018 31.5533 4.4467C32.9598 5.85322 33.75 7.76088 33.75 9.75C33.75 11.7391 32.9598 13.6468 31.5533 15.0533C30.1468 16.4598 28.2391 17.25 26.25 17.25C24.2609 17.25 22.3532 16.4598 20.9467 15.0533C19.5402 13.6468 18.75 11.7391 18.75 9.75ZM3 3H16.5V16.5H3V3ZM6 6V13.5H13.5V6H6ZM3 19.5H16.5V33H3V19.5ZM6 22.5V30H13.5V22.5H6ZM19.5 19.5H33V33H19.5V19.5ZM30 22.5H22.5V30H30V22.5Z" fill="#22A9E1"/>
</svg>
