<svg width="36" height="36" viewBox="0 0 36 36" fill="none" xmlns="http://www.w3.org/2000/svg">
<path d="M20.25 29.25H33.75V31.5H20.25V29.25ZM20.25 23.625H33.75V25.875H20.25V23.625ZM20.25 18H33.75V20.25H20.25V18Z" fill="#22A9E1"/>
<path d="M15.75 28.125H10.6875C8.57855 28.1273 6.54524 27.3394 4.98856 25.9165C3.43189 24.4937 2.46486 22.5392 2.27818 20.4385C2.09149 18.3378 2.69871 16.2434 3.98007 14.5683C5.26143 12.8932 7.12393 11.759 9.20027 11.3895C9.72617 8.63959 11.2585 6.1846 13.4979 4.50424C15.7373 2.82388 18.5228 2.0389 21.31 2.3027C24.0973 2.56649 26.686 3.8601 28.5704 5.93074C30.4548 8.00138 31.4994 10.7003 31.5 13.5H29.25C29.2486 11.1991 28.3659 8.98624 26.7834 7.31608C25.2008 5.64592 23.0387 4.64536 20.7413 4.52005C18.4438 4.39473 16.1857 5.15418 14.4309 6.64231C12.6761 8.13043 11.558 10.2342 11.3063 12.5212L11.205 13.4595L10.2634 13.5225C8.66102 13.6285 7.16274 14.3537 6.0856 15.5448C5.00846 16.7358 4.43698 18.2992 4.49208 19.9042C4.54719 21.5091 5.22456 23.0296 6.38085 24.144C7.53715 25.2584 9.08165 25.8791 10.6875 25.875H15.75V28.125Z" fill="#22A9E1"/>
</svg>
