<svg width="36" height="36" viewBox="0 0 36 36" fill="none" xmlns="http://www.w3.org/2000/svg">
<path d="M32.2917 6.75L23.0625 15.8695V6.75H20.635L11.8125 15.6985V1.125H1.125V34.875H34.875V6.75H32.2917ZM32.625 32.625H3.375V3.375H9.5625V18.5625H12.1485L20.8125 9.7747V18.5625H23.5381L32.625 9.58359V32.625Z" fill="#22A9E1"/>
<path d="M9.5625 23.0625V23.625H11.8125V21.375H9.5625V23.0625ZM9.5625 26.4375H11.8125V28.6875H9.5625V26.4375ZM15.1875 23.0625V23.625H17.4375V21.375H15.1875V23.0625ZM15.1875 26.4375H17.4375V28.6875H15.1875V26.4375ZM20.8125 23.0625V23.625H23.0625V21.375H20.8125V23.0625ZM20.8125 26.4375H23.0625V28.6875H20.8125V26.4375ZM26.4375 21.375H28.6875V23.625H26.4375V21.375ZM26.4375 26.4375H28.6875V28.6875H26.4375V26.4375Z" fill="#22A9E1"/>
</svg>
