<svg width="36" height="36" viewBox="0 0 36 36" fill="none" xmlns="http://www.w3.org/2000/svg">
<path d="M18 8.361L17.178 9.129C17.2832 9.24164 17.4105 9.33145 17.5519 9.39284C17.6933 9.45424 17.8458 9.48593 18 9.48593C18.1542 9.48593 18.3067 9.45424 18.4481 9.39284C18.5895 9.33145 18.7168 9.24164 18.822 9.129L18 8.361ZM14.151 28.194C11.976 26.43 9.438 24.1155 7.452 21.582C5.4435 19.0215 4.125 16.392 4.125 13.977H1.875C1.875 17.1525 3.57 20.28 5.6805 22.971C7.8135 25.6905 10.4955 28.125 12.7335 29.9415L14.151 28.194ZM4.125 13.977C4.125 9.6195 6.027 6.927 8.379 6.0045C10.7265 5.085 14.01 5.742 17.178 9.129L18.822 7.593C15.24 3.762 11.0235 2.553 7.5585 3.909C4.098 5.265 1.875 8.988 1.875 13.977H4.125ZM23.265 29.94C25.5045 28.1235 28.1865 25.689 30.3195 22.9695C32.43 20.2785 34.125 17.151 34.125 13.974H31.875C31.875 16.392 30.555 19.02 28.548 21.5805C26.562 24.114 24.024 26.4285 21.849 28.1925L23.265 29.94ZM34.125 13.974C34.125 8.9865 31.902 5.2635 28.44 3.909C24.975 2.5515 20.76 3.759 17.178 7.5915L18.822 9.129C21.99 5.742 25.2735 5.0835 27.621 6.003C29.973 6.924 31.875 9.618 31.875 13.974H34.125ZM12.7335 29.9415C14.6385 31.4895 15.963 32.625 18 32.625V30.375C16.9155 30.375 16.2405 29.889 14.151 28.194L12.7335 29.9415ZM21.849 28.1925C19.7595 29.8875 19.0845 30.375 18 30.375V32.625C20.037 32.625 21.3615 31.4895 23.2665 29.9415L21.849 28.1925Z" fill="#22A9E1"/>
<path d="M27.75 13.5H24.75M24.75 13.5H21.75M24.75 13.5V10.5M24.75 13.5V16.5" stroke="#22A9E1" stroke-width="1.5" stroke-linecap="round"/>
</svg>
