<svg width="36" height="36" viewBox="0 0 36 36" fill="none" xmlns="http://www.w3.org/2000/svg">
<path d="M25.5 5.26951C25.815 5.65501 26.169 6.11101 26.5215 6.61501C27.6315 8.19901 28.5 9.92551 28.5 11.25C28.5 12.0457 28.1839 12.8087 27.6213 13.3713C27.0587 13.9339 26.2956 14.25 25.5 14.25C24.7044 14.25 23.9413 13.9339 23.3787 13.3713C22.8161 12.8087 22.5 12.0457 22.5 11.25C22.5 9.92551 23.3685 8.19901 24.4785 6.61501C24.831 6.11101 25.185 5.65501 25.5 5.26951ZM25.5 0.855011L24.429 1.95001H24.426L24.4215 1.95601L24.4095 1.96801L24.3645 2.01451L24.207 2.18251C23.421 3.03757 22.691 3.94245 22.0215 4.89151C20.8815 6.51901 19.5 8.91751 19.5 11.25C19.5 12.8413 20.1321 14.3674 21.2574 15.4927C22.3826 16.6179 23.9087 17.25 25.5 17.25C27.0913 17.25 28.6174 16.6179 29.7426 15.4927C30.8679 14.3674 31.5 12.8413 31.5 11.25C31.5 8.91751 30.1185 6.51901 28.9785 4.89301C28.2643 3.88194 27.4815 2.92117 26.6355 2.01751L26.5905 1.97101L26.5785 1.95601L26.574 1.95301L26.571 1.95001L25.5 0.855011ZM12.6525 19.875C12.4062 19.8744 12.1622 19.9223 11.9344 20.0159C11.7067 20.1096 11.4996 20.2473 11.325 20.421L8.25 23.496V29.25H16.6905L25.3965 27.0735L30.693 24.813C30.8434 24.7306 30.9647 24.6038 31.0403 24.4499C31.1159 24.2959 31.1421 24.1224 31.1154 23.953C31.0886 23.7836 31.0102 23.6266 30.8908 23.5034C30.7715 23.3803 30.617 23.297 30.4485 23.265C30.3224 23.243 30.193 23.2481 30.069 23.28L30.039 23.2875L20.421 25.5H15V22.5H19.6875C20.0356 22.5 20.3694 22.3617 20.6156 22.1156C20.8617 21.8694 21 21.5356 21 21.1875C21 20.8394 20.8617 20.5056 20.6156 20.2594C20.3694 20.0133 20.0356 19.875 19.6875 19.875H12.6525ZM23.9805 21.603L29.3085 20.3775C30.2258 20.1349 31.2005 20.2411 32.044 20.6754C32.8876 21.1098 33.5401 21.8416 33.8754 22.7292C34.2107 23.6168 34.205 24.5972 33.8593 25.4808C33.5136 26.3645 32.8526 27.0885 32.004 27.513L31.9635 27.5325L26.3535 29.9265L17.0595 32.25H0V21.375H6.129L9.207 18.297C9.66051 17.845 10.1986 17.4868 10.7906 17.2428C11.3825 16.9989 12.0167 16.8739 12.657 16.875H19.6875C20.2889 16.8749 20.8837 17.0006 21.4336 17.2441C21.9836 17.4875 22.4765 17.8433 22.8808 18.2885C23.2851 18.7338 23.5918 19.2587 23.7812 19.8295C23.9705 20.4003 24.0384 21.0044 23.9805 21.603ZM5.25 24.375H3V29.25H5.25V24.375Z" fill="#22A9E1"/>
</svg>
