<svg width="36" height="36" viewBox="0 0 36 36" fill="none" xmlns="http://www.w3.org/2000/svg">
<path d="M31.5 10.5C31.8823 10.5004 32.25 10.6468 32.528 10.9093C32.806 11.1717 32.9733 11.5304 32.9957 11.9121C33.0181 12.2938 32.894 12.6696 32.6486 12.9627C32.4032 13.2559 32.0551 13.4443 31.6755 13.4895L31.5 13.5V28.5C31.8823 28.5004 32.25 28.6468 32.528 28.9093C32.806 29.1717 32.9733 29.5304 32.9957 29.9121C33.0181 30.2938 32.894 30.6696 32.6486 30.9627C32.4032 31.2559 32.0551 31.4443 31.6755 31.4895L31.5 31.5H4.49999C4.11767 31.4996 3.74994 31.3532 3.47193 31.0907C3.19393 30.8283 3.02663 30.4696 3.00423 30.0879C2.98182 29.7062 3.106 29.3304 3.35138 29.0373C3.59677 28.7441 3.94484 28.5557 4.32449 28.5105L4.49999 28.5V13.5C4.11767 13.4996 3.74994 13.3532 3.47193 13.0907C3.19393 12.8283 3.02663 12.4696 3.00423 12.0879C2.98182 11.7062 3.106 11.3304 3.35138 11.0373C3.59677 10.7441 3.94484 10.5557 4.32449 10.5105L4.49999 10.5H31.5ZM28.5 13.5H7.49999V28.5H10.5V18C10.5 17.6022 10.658 17.2206 10.9393 16.9393C11.2206 16.658 11.6022 16.5 12 16.5C12.3978 16.5 12.7793 16.658 13.0606 16.9393C13.342 17.2206 13.5 17.6022 13.5 18V28.5H16.5V18C16.5 17.6022 16.658 17.2206 16.9393 16.9393C17.2206 16.658 17.6022 16.5 18 16.5C18.3978 16.5 18.7793 16.658 19.0606 16.9393C19.3419 17.2206 19.5 17.6022 19.5 18V28.5H22.5V18C22.5 17.6022 22.658 17.2206 22.9393 16.9393C23.2206 16.658 23.6022 16.5 24 16.5C24.3978 16.5 24.7793 16.658 25.0606 16.9393C25.342 17.2206 25.5 17.6022 25.5 18V28.5H28.5V13.5ZM27 6C27.3978 6 27.7793 6.15804 28.0606 6.43934C28.342 6.72064 28.5 7.10218 28.5 7.5C28.5 7.89782 28.342 8.27936 28.0606 8.56066C27.7793 8.84196 27.3978 9 27 9H8.99999C8.60216 9 8.22063 8.84196 7.93933 8.56066C7.65802 8.27936 7.49999 7.89782 7.49999 7.5C7.49999 7.10218 7.65802 6.72064 7.93933 6.43934C8.22063 6.15804 8.60216 6 8.99999 6H27Z" fill="#22A9E1"/>
</svg>
