<svg width="36" height="36" viewBox="0 0 36 36" fill="none" xmlns="http://www.w3.org/2000/svg">
<path d="M18 1.21051L35.7525 12.75L33 14.5395V24H30V16.4895L28.5 17.4645V26.25C28.5 28.455 26.979 30.1725 25.1205 31.2585C23.223 32.364 20.703 32.9985 18 32.9985C15.297 32.9985 12.7755 32.364 10.8795 31.2585C9.0195 30.1725 7.5 28.4535 7.5 26.2485V17.4645L0.247498 12.75L18 1.21051ZM10.5 19.4145V26.25C10.5 26.9445 10.995 27.8505 12.3915 28.665C13.7535 29.46 15.732 30 18 30C20.268 30 22.2465 29.46 23.6085 28.665C25.0065 27.8505 25.4985 26.9445 25.4985 26.25V19.4145L17.9985 24.2895L10.5 19.4145ZM30.2475 12.75L18 4.78951L5.7525 12.75L18 20.7105L30.2475 12.75Z" fill="#22A9E1"/>
</svg>
